<svg width="300" height="327" viewBox="0 0 300 327" fill="none" xmlns="http://www.w3.org/2000/svg">
<path d="M6.80518 64.7385H27.2425C41.4795 62.5542 53.9729 54.777 62.1511 43.5156V27.6699C62.1511 12.9298 74.1814 0.929578 89.0721 0.70845L135.183 0.0180991C225.824 -1.33564 300 73.4326 300 163.168C300 252.902 225.813 324.963 135.183 326.317L89.7151 326.996C82.158 327.11 75.6198 324.472 70.2475 319.214C64.8753 313.955 62.1565 307.516 62.1565 300.035V280.667C44.7268 256.338 41.2833 261.936 14.3078 261.936C6.54365 261.936 0.168904 255.729 0.010897 248.075V157.143C0.168904 149.49 6.54365 143.282 14.3078 143.282C43.539 143.282 65.3058 146.863 79.352 112.103V91.7C79.352 87.9947 82.4141 84.9637 86.1572 84.9637H127.032C130.775 84.9637 133.837 87.9947 133.837 91.7V132.161C133.837 135.866 130.775 138.897 127.032 138.897H90.9355C74.9659 144.997 61.7969 157.057 54.4959 172.681V231.081C54.4959 253.318 58.9147 263.096 81.5804 273.629L134.153 272.389C194.675 271.245 245.526 223.913 245.526 163.162C245.526 102.411 196.789 52.7922 136.234 53.9356C91.0336 54.7878 71.3972 49.3512 54.5014 76.3936V111.925C54.5014 115.63 51.4393 118.661 47.6962 118.661H6.80518C3.06206 118.661 0 115.63 0 111.925V71.4641C0 67.7588 3.06206 64.7277 6.80518 64.7277" fill="white"/>
</svg>
