<svg width="52" height="56" viewBox="0 0 52 56" fill="none" xmlns="http://www.w3.org/2000/svg">
<mask id="mask0_63_28" style="mask-type:luminance" maskUnits="userSpaceOnUse" x="0" y="0" width="52" height="56">
<path d="M1.16988 11.0867H4.68327C7.13075 10.7126 9.2785 9.38077 10.6844 7.45222V4.73858C10.6844 2.21428 12.7526 0.159194 15.3124 0.121325L23.2393 0.00309954C38.8215 -0.228733 51.5731 12.5756 51.5731 27.9431C51.5731 43.3105 38.8197 55.6512 23.2393 55.883L15.423 55.9994C14.1238 56.0188 12.9998 55.5671 12.0763 54.6666C11.1527 53.766 10.6854 52.6632 10.6854 51.3821V48.0654C7.689 43.8989 7.09703 44.8576 2.45966 44.8576C1.12492 44.8576 0.0290363 43.7945 0.00187331 42.4838V26.9114C0.0290363 25.6007 1.12492 24.5376 2.45966 24.5376C7.48481 24.5376 11.2267 25.1509 13.6414 19.1981V15.704C13.6414 15.0694 14.1678 14.5504 14.8113 14.5504H21.8381C22.4816 14.5504 23.008 15.0694 23.008 15.704V22.6331C23.008 23.2676 22.4816 23.7867 21.8381 23.7867H15.6328C12.8874 24.8313 10.6235 26.8966 9.36842 29.5724V39.5735C9.36842 43.3816 10.128 45.0562 14.0245 46.86L23.0623 46.6476C33.4667 46.4518 42.2085 38.346 42.2085 27.9421C42.2085 17.5383 33.8301 9.04087 23.4201 9.23668C15.6496 9.38261 12.2739 8.45159 9.36936 13.0827V19.1676C9.36936 19.8021 8.84296 20.3212 8.19948 20.3212H1.16988C0.5264 20.3212 0 19.8021 0 19.1676V12.2385C0 11.604 0.5264 11.0849 1.16988 11.0849" fill="white"/>
</mask>
<g mask="url(#mask0_63_28)">
<path d="M51.5722 -0.227814H0V56.0197H51.5722V-0.227814Z" fill="white"/>
</g>
</svg>
