<svg width="46" height="46" viewBox="0 0 46 46" fill="none" xmlns="http://www.w3.org/2000/svg">
<path d="M43.1736 2.51313C41.4975 0.836947 39.4806 0 37.1206 0H8.56613C6.20621 0 4.18931 0.836947 2.51313 2.51313C0.836947 4.18931 0 6.20621 0 8.56613V37.1206C0 39.4806 0.836947 41.4975 2.51313 43.1736C4.18931 44.8498 6.20621 45.6868 8.56613 45.6868H15.2297C15.6642 45.6868 15.9912 45.6708 16.2107 45.641C16.4661 45.5898 16.6966 45.4536 16.8647 45.2546C17.0819 45.0259 17.1917 44.6943 17.1917 44.2598L17.1757 42.2361C17.1666 40.9464 17.162 39.9265 17.162 39.1718L16.476 39.2908C16.0415 39.3708 15.4927 39.4051 14.8272 39.3959C14.1336 39.3831 13.4422 39.3135 12.76 39.1879C12.0337 39.0538 11.3501 38.748 10.766 38.296C10.1543 37.8333 9.698 37.1951 9.45795 36.4666L9.16068 35.7806C8.91012 35.2395 8.59533 34.7304 8.22311 34.2645C7.79778 33.7088 7.36559 33.3338 6.92882 33.1349L6.72301 32.9862C6.5795 32.8834 6.44897 32.7637 6.33427 32.6295C6.22471 32.505 6.13452 32.3647 6.06672 32.2133C6.00726 32.0738 6.05757 31.9595 6.21536 31.8703C6.37543 31.7788 6.66127 31.7354 7.07974 31.7354L7.6743 31.8268C8.0699 31.9046 8.56155 32.1424 9.14467 32.538C9.73479 32.9403 10.2277 33.4692 10.5876 34.0861C11.045 34.8979 11.5938 35.5176 12.2386 35.9453C12.8835 36.3706 13.5329 36.5855 14.1869 36.5855C14.8409 36.5855 15.4058 36.5352 15.8837 36.4369C16.3459 36.3413 16.795 36.1909 17.2214 35.9887C17.3998 34.6624 17.8846 33.6379 18.6781 32.9245C17.6499 32.8237 16.6309 32.6448 15.6299 32.3894C14.653 32.121 13.7134 31.7315 12.8332 31.23C11.9122 30.7286 11.0987 30.0511 10.439 29.236C9.80554 28.4425 9.28416 27.402 8.87712 26.1146C8.47237 24.8248 8.26885 23.3362 8.26885 21.6508C8.26885 19.2521 9.05091 17.21 10.6173 15.5224C9.88557 13.7204 9.95418 11.6967 10.8254 9.45795C11.4017 9.2773 12.2546 9.41222 13.3843 9.85813C14.5139 10.304 15.3417 10.6859 15.8677 11.0015C16.3936 11.3216 16.8144 11.5892 17.1323 11.8064C18.9913 11.2891 20.9125 11.029 22.8422 11.0335C24.8065 11.0335 26.7091 11.2919 28.5545 11.8064L29.6842 11.093C30.5531 10.5713 31.4696 10.1333 32.4214 9.78496C33.4733 9.38706 34.2737 9.27959 34.8316 9.45795C35.7234 11.699 35.8012 13.7204 35.0671 15.5247C36.6336 17.21 37.4179 19.2521 37.4179 21.6531C37.4179 23.3385 37.2144 24.8317 36.8074 26.1283C36.4026 27.4272 35.8767 28.4676 35.2318 29.252C34.5604 30.0566 33.7436 30.7277 32.8239 31.23C31.8634 31.7651 30.9304 32.1516 30.0272 32.3894C29.0262 32.6456 28.0072 32.8253 26.979 32.9268C28.008 33.8186 28.5248 35.2249 28.5248 37.1481V44.2598C28.5248 44.596 28.5728 44.8681 28.6734 45.0762C28.7197 45.1765 28.7856 45.2664 28.8673 45.3406C28.949 45.4149 29.0449 45.4719 29.1491 45.5084C29.3686 45.5861 29.5607 45.6365 29.7299 45.6548C29.8991 45.6776 30.1415 45.6845 30.4571 45.6845H37.1206C39.4806 45.6845 41.4975 44.8475 43.1736 43.1714C44.8475 41.4975 45.6868 39.4783 45.6868 37.1184V8.56613C45.6868 6.20621 44.8498 4.18931 43.1736 2.51313Z" fill="white"/>
</svg>
