<svg width="46" height="46" viewBox="0 0 46 46" fill="none" xmlns="http://www.w3.org/2000/svg">
<path d="M25.5052 0C28.0749 0.00685267 29.3792 0.020558 30.5054 0.0525371L30.9485 0.0685266C31.4602 0.0868004 31.965 0.109643 32.5749 0.137053C35.0053 0.251264 36.6636 0.635014 38.1187 1.19922C39.6263 1.77941 40.8963 2.56518 42.1663 3.83293C43.3283 4.97443 44.2271 6.35579 44.8 7.88057C45.3642 9.33562 45.748 10.994 45.8622 13.4267C45.8896 14.0343 45.9124 14.5391 45.9307 15.053L45.9444 15.4962C45.9787 16.62 45.9924 17.9243 45.997 20.4941L45.9992 22.1981V25.1904C46.0048 26.8565 45.9873 28.5227 45.9467 30.1883L45.933 30.6314C45.9147 31.1454 45.8919 31.6502 45.8645 32.2578C45.7503 34.6905 45.3619 36.3466 44.8 37.8039C44.2271 39.3287 43.3283 40.71 42.1663 41.8515C41.0248 43.0135 39.6434 43.9123 38.1187 44.4852C36.6636 45.0495 35.0053 45.4332 32.5749 45.5474L30.9485 45.6159L30.5054 45.6296C29.3792 45.6616 28.0749 45.6776 25.5052 45.6822L23.8012 45.6845H20.8111C19.1442 45.6903 17.4773 45.6728 15.8109 45.6319L15.3678 45.6182C14.8256 45.5977 14.2834 45.5741 13.7414 45.5474C11.311 45.4332 9.65268 45.0495 8.19535 44.4852C6.67138 43.912 5.29082 43.0132 4.14999 41.8515C2.98719 40.7103 2.08758 39.3289 1.51399 37.8039C0.94979 36.3488 0.56604 34.6905 0.451829 32.2578L0.383302 30.6314L0.371882 30.1883C0.329774 28.5227 0.310737 26.8566 0.314776 25.1904V20.4941C0.308453 18.8279 0.325206 17.1618 0.365029 15.4962L0.381018 15.053C0.399292 14.5391 0.422134 14.0343 0.449545 13.4267C0.563756 10.994 0.947505 9.3379 1.51171 7.88057C2.08663 6.35516 2.98783 4.97375 4.15227 3.83293C5.29245 2.67151 6.6722 1.77273 8.19535 1.19922C9.65268 0.635014 11.3087 0.251264 13.7414 0.137053C14.349 0.109643 14.8561 0.0868004 15.3678 0.0685266L15.8109 0.0548212C17.4766 0.0142369 19.1427 -0.00327717 20.8088 0.00228406L25.5052 0ZM23.157 11.4211C20.1279 11.4211 17.2229 12.6244 15.0811 14.7663C12.9392 16.9082 11.7359 19.8132 11.7359 22.8422C11.7359 25.8713 12.9392 28.7763 15.0811 30.9182C17.2229 33.0601 20.1279 34.2634 23.157 34.2634C26.1861 34.2634 29.0911 33.0601 31.233 30.9182C33.3748 28.7763 34.5781 25.8713 34.5781 22.8422C34.5781 19.8132 33.3748 16.9082 31.233 14.7663C29.0911 12.6244 26.1861 11.4211 23.157 11.4211ZM23.157 15.9896C24.0569 15.9894 24.948 16.1665 25.7795 16.5108C26.611 16.855 27.3665 17.3596 28.0029 17.9959C28.6393 18.6321 29.1442 19.3874 29.4888 20.2188C29.8333 21.0501 30.0107 21.9412 30.0108 22.8411C30.011 23.741 29.8339 24.6321 29.4896 25.4636C29.1454 26.295 28.6407 27.0506 28.0045 27.687C27.3683 28.3234 26.613 28.8283 25.7816 29.1728C24.9503 29.5174 24.0592 29.6948 23.1593 29.6949C21.3419 29.6949 19.5988 28.9729 18.3137 27.6878C17.0286 26.4027 16.3066 24.6597 16.3066 22.8422C16.3066 21.0248 17.0286 19.2818 18.3137 17.9967C19.5988 16.7115 21.3419 15.9896 23.1593 15.9896M35.1515 7.99478C34.3942 7.99478 33.6679 8.2956 33.1325 8.83107C32.597 9.36654 32.2962 10.0928 32.2962 10.8501C32.2962 11.6073 32.597 12.3336 33.1325 12.869C33.6679 13.4045 34.3942 13.7053 35.1515 13.7053C35.9087 13.7053 36.635 13.4045 37.1704 12.869C37.7059 12.3336 38.0067 11.6073 38.0067 10.8501C38.0067 10.0928 37.7059 9.36654 37.1704 8.83107C36.635 8.2956 35.9087 7.99478 35.1515 7.99478Z" fill="white"/>
</svg>
