<svg width="46" height="46" viewBox="0 0 46 46" fill="none" xmlns="http://www.w3.org/2000/svg">
<path d="M40.7667 0C42.113 0 43.4042 0.534823 44.3562 1.48682C45.3082 2.43881 45.843 3.72999 45.843 5.07631V40.6105C45.843 41.9568 45.3082 43.248 44.3562 44.1999C43.4042 45.1519 42.113 45.6868 40.7667 45.6868H5.23256C3.88624 45.6868 2.59506 45.1519 1.64307 44.1999C0.691073 43.248 0.15625 41.9568 0.15625 40.6105V5.07631C0.15625 3.72999 0.691073 2.43881 1.64307 1.48682C2.59506 0.534823 3.88624 0 5.23256 0H40.7667ZM39.4976 39.3414V25.8892C39.4976 23.6947 38.6259 21.59 37.0741 20.0383C35.5224 18.4865 33.4178 17.6148 31.2232 17.6148C29.0658 17.6148 26.553 18.9346 25.3347 20.9144V18.097H18.2533V39.3414H25.3347V26.8283C25.3347 24.8739 26.9084 23.2749 28.8628 23.2749C29.8052 23.2749 30.709 23.6492 31.3754 24.3156C32.0418 24.982 32.4162 25.8859 32.4162 26.8283V39.3414H39.4976ZM10.0043 14.1121C11.1352 14.1121 12.2198 13.6629 13.0195 12.8632C13.8191 12.0635 14.2684 10.9789 14.2684 9.84804C14.2684 7.48755 12.3648 5.55856 10.0043 5.55856C8.86665 5.55856 7.7756 6.01048 6.97117 6.81492C6.16673 7.61935 5.71481 8.7104 5.71481 9.84804C5.71481 12.2085 7.6438 14.1121 10.0043 14.1121ZM13.5323 39.3414V18.097H6.50163V39.3414H13.5323Z" fill="white"/>
</svg>
