<svg width="303" height="328" viewBox="0 0 303 328" fill="none" xmlns="http://www.w3.org/2000/svg">
<mask id="path-1-inside-1_136_7" fill="white">
<path d="M8.80518 64.7385H29.2425C43.4795 62.5542 55.9729 54.777 64.1511 43.5156V27.6699C64.1511 12.9298 76.1814 0.929578 91.0721 0.70845L137.183 0.0180991C227.824 -1.33564 302 73.4326 302 163.168C302 252.902 227.813 324.963 137.183 326.317L91.7151 326.996C84.158 327.11 77.6198 324.472 72.2475 319.214C66.8753 313.955 64.1565 307.516 64.1565 300.035V280.667C46.7268 256.338 43.2833 261.936 16.3078 261.936C8.54365 261.936 2.1689 255.729 2.0109 248.075V157.143C2.1689 149.49 8.54365 143.282 16.3078 143.282C45.539 143.282 67.3058 146.863 81.352 112.103V91.7C81.352 87.9947 84.4141 84.9637 88.1572 84.9637H129.032C132.775 84.9637 135.837 87.9947 135.837 91.7V132.161C135.837 135.866 132.775 138.897 129.032 138.897H92.9355C76.9659 144.997 63.7969 157.057 56.4959 172.681V231.081C56.4959 253.318 60.9147 263.096 83.5804 273.629L136.153 272.389C196.675 271.245 247.526 223.913 247.526 163.162C247.526 102.411 198.789 52.7922 138.234 53.9356C93.0336 54.7878 73.3972 49.3512 56.5014 76.3936V111.925C56.5014 115.63 53.4393 118.661 49.6962 118.661H8.80518C5.06206 118.661 2 115.63 2 111.925V71.4641C2 67.7588 5.06206 64.7277 8.80518 64.7277"/>
</mask>
<path d="M29.2425 64.7385V65.7385H29.3188L29.3942 65.727L29.2425 64.7385ZM64.1511 43.5156L64.9602 44.1032L65.1511 43.8404V43.5156H64.1511ZM91.0721 0.70845L91.087 1.70834L91.0871 1.70834L91.0721 0.70845ZM137.183 0.0180991L137.168 -0.981789L137.168 -0.981789L137.183 0.0180991ZM137.183 326.317L137.168 325.317L137.168 325.317L137.183 326.317ZM91.7151 326.996L91.7001 325.997L91.7001 325.997L91.7151 326.996ZM64.1565 280.667H65.1565V280.346L64.9694 280.085L64.1565 280.667ZM2.0109 248.075H1.0109V248.086L1.01111 248.096L2.0109 248.075ZM2.0109 157.143L1.01111 157.122L1.0109 157.133V157.143H2.0109ZM81.352 112.103L82.2792 112.478L82.352 112.298V112.103H81.352ZM92.9355 138.897V137.897H92.751L92.5787 137.963L92.9355 138.897ZM56.4959 172.681L55.59 172.258L55.4959 172.459V172.681H56.4959ZM83.5804 273.629L83.159 274.536L83.3707 274.634L83.604 274.629L83.5804 273.629ZM136.153 272.389L136.134 271.389L136.129 271.389L136.153 272.389ZM138.234 53.9356L138.253 54.9354L138.253 54.9354L138.234 53.9356ZM56.5014 76.3936L55.6533 75.8637L55.5014 76.1069V76.3936H56.5014ZM8.80518 65.7385H29.2425V63.7385H8.80518V65.7385ZM29.3942 65.727C43.8972 63.5018 56.6265 55.5788 64.9602 44.1032L63.3419 42.928C55.3193 53.9752 43.0617 61.6066 29.0909 63.7501L29.3942 65.727ZM65.1511 43.5156V27.6699H63.1511V43.5156H65.1511ZM65.1511 27.6699C65.1511 13.4899 76.729 1.92156 91.087 1.70834L91.0573 -0.291439C75.6338 -0.0624001 63.1511 12.3697 63.1511 27.6699H65.1511ZM91.0871 1.70834L137.198 1.01799L137.168 -0.981789L91.0572 -0.291438L91.0871 1.70834ZM137.198 1.01799C227.271 -0.327266 301 73.9808 301 163.168H303C303 72.8844 228.377 -2.34401 137.168 -0.981789L137.198 1.01799ZM301 163.168C301 252.327 227.281 323.971 137.168 325.317L137.198 327.317C228.345 325.955 303 253.478 303 163.168H301ZM137.168 325.317L91.7001 325.997L91.73 327.996L137.198 327.317L137.168 325.317ZM91.7001 325.997C84.4114 326.106 78.13 323.572 72.947 318.499L71.548 319.928C77.1096 325.372 83.9045 328.114 91.73 327.996L91.7001 325.997ZM72.947 318.499C67.7657 313.428 65.1565 307.245 65.1565 300.035H63.1565C63.1565 307.786 65.9849 314.483 71.548 319.928L72.947 318.499ZM65.1565 300.035V280.667H63.1565V300.035H65.1565ZM64.9694 280.085C56.2511 267.916 50.8512 262.948 44.0598 261.21C40.705 260.351 37.0767 260.297 32.6804 260.442C28.2525 260.588 23.0311 260.936 16.3078 260.936V262.936C23.0722 262.936 28.3971 262.585 32.7463 262.441C37.1273 262.297 40.5071 262.364 43.5638 263.147C49.5955 264.691 54.6322 269.09 63.3436 281.25L64.9694 280.085ZM16.3078 260.936C9.07952 260.936 3.15728 255.155 3.01068 248.055L1.01111 248.096C1.18052 256.302 8.00778 262.936 16.3078 262.936V260.936ZM3.0109 248.075V157.143H1.0109V248.075H3.0109ZM3.01068 157.164C3.15728 150.063 9.07952 144.282 16.3078 144.282V142.282C8.00779 142.282 1.18052 148.917 1.01111 157.122L3.01068 157.164ZM16.3078 144.282C23.5673 144.282 30.4709 144.506 36.8601 144.298C43.2697 144.089 49.2747 143.446 54.8272 141.681C66.025 138.121 75.1717 130.067 82.2792 112.478L80.4248 111.728C73.4861 128.9 64.7262 136.435 54.2213 139.775C48.9224 141.459 43.127 142.093 36.7951 142.299C30.4428 142.506 23.6638 142.282 16.3078 142.282V144.282ZM82.352 112.103V91.7H80.352V112.103H82.352ZM82.352 91.7C82.352 88.5566 84.9567 85.9637 88.1572 85.9637V83.9637C83.8714 83.9637 80.352 87.4329 80.352 91.7H82.352ZM88.1572 85.9637H129.032V83.9637H88.1572V85.9637ZM129.032 85.9637C132.232 85.9637 134.837 88.5566 134.837 91.7H136.837C136.837 87.4329 133.318 83.9637 129.032 83.9637V85.9637ZM134.837 91.7V132.161H136.837V91.7H134.837ZM134.837 132.161C134.837 135.304 132.232 137.897 129.032 137.897V139.897C133.318 139.897 136.837 136.428 136.837 132.161H134.837ZM129.032 137.897H92.9355V139.897H129.032V137.897ZM92.5787 137.963C76.3712 144.154 63.0028 156.394 55.59 172.258L57.4019 173.105C64.591 157.72 77.5607 145.841 93.2923 139.832L92.5787 137.963ZM55.4959 172.681V231.081H57.4959V172.681H55.4959ZM55.4959 231.081C55.4959 242.236 56.5962 250.474 60.6818 257.26C64.7729 264.055 71.7606 269.239 83.159 274.536L84.0019 272.722C72.7345 267.486 66.18 262.514 62.3952 256.228C58.605 249.933 57.4959 242.163 57.4959 231.081H55.4959ZM83.604 274.629L136.177 273.388L136.129 271.389L83.5568 272.629L83.604 274.629ZM136.172 273.388C197.187 272.236 248.526 224.508 248.526 163.162H246.526C246.526 223.318 196.163 270.255 136.134 271.389L136.172 273.388ZM248.526 163.162C248.526 101.875 199.352 51.7814 138.215 52.9358L138.253 54.9354C198.226 53.803 246.526 102.948 246.526 163.162H248.526ZM138.216 52.9358C126.921 53.1487 117.26 52.9685 108.767 53.0013C100.3 53.0341 93.0099 53.2787 86.5879 54.3571C80.1508 55.438 74.5561 57.3607 69.4862 60.7657C64.4185 64.1692 59.932 69.0155 55.6533 75.8637L57.3495 76.9235C61.5187 70.2505 65.8226 65.6355 70.6013 62.426C75.3776 59.2182 80.6851 57.3763 86.9191 56.3295C93.1682 55.2801 100.318 55.034 108.774 55.0013C117.203 54.9688 126.947 55.1486 138.253 54.9354L138.216 52.9358ZM55.5014 76.3936V111.925H57.5014V76.3936H55.5014ZM55.5014 111.925C55.5014 115.069 52.8966 117.661 49.6962 117.661V119.661C53.982 119.661 57.5014 116.192 57.5014 111.925H55.5014ZM49.6962 117.661H8.80518V119.661H49.6962V117.661ZM8.80518 117.661C5.60473 117.661 3 115.069 3 111.925H1C1 116.192 4.51939 119.661 8.80518 119.661V117.661ZM3 111.925V71.4641H1V111.925H3ZM3 71.4641C3 68.3207 5.60473 65.7277 8.80518 65.7277V63.7277C4.51939 63.7277 1 67.197 1 71.4641H3Z" fill="white" mask="url(#path-1-inside-1_136_7)"/>
<path d="M82 3C82.3089 3.33851 82.6241 3.68353 82.9452 4.03468M134.5 103L94 85L126 139L75 124.5V148.5C59.8333 147.167 29 144.5 27 144.5C25 144.5 44.8333 168.167 55 180L2.5 209L55 231.5V266H69L66.5 304.5L112 272.5L151.5 324.5L180 264L253 278.5L231 222L301.5 157L231 103L195 11C174.333 24.1667 132.6 50.9 131 52.5C129.432 54.0684 98.9064 21.4911 82.9452 4.03468M82.9452 4.03468L79.5 54.5L54 57L46.5 115.5L2.5 75.5" stroke="black"/>
<path d="M12.5 118L33 66L55.5 90L46 61H65L60.5 48L133 4L184 61H264L247 171.5L282.5 238.5L213 245.5L197 311.5L143 272.5L104.5 326.5L81.5 272.5L2 235L55.5 209.5L2 171.5L65 161V138H91.5L81.5 99.5L135 114.5" stroke="black"/>
</svg>
