<svg width="40" height="44" viewBox="0 0 40 44" fill="none" xmlns="http://www.w3.org/2000/svg">
<path d="M19.9978 34C20.5282 34 21.0369 34.2107 21.412 34.5858C21.7871 34.9609 21.9978 35.4696 21.9978 36V38C21.9978 38.5304 21.7871 39.0391 21.412 39.4142C21.0369 39.7893 20.5282 40 19.9978 40C19.4674 40 18.9586 39.7893 18.5836 39.4142C18.2085 39.0391 17.9978 38.5304 17.9978 38V36C17.9978 35.4696 18.2085 34.9609 18.5836 34.5858C18.9586 34.2107 19.4674 34 19.9978 34ZM32.7258 29.9L34.1398 31.314C34.5041 31.6912 34.7057 32.1964 34.7011 32.7208C34.6966 33.2452 34.4862 33.7468 34.1154 34.1176C33.7446 34.4885 33.243 34.6988 32.7186 34.7033C32.1942 34.7079 31.689 34.5063 31.3118 34.142L29.8978 32.728C29.5335 32.3508 29.3319 31.8456 29.3364 31.3212C29.341 30.7968 29.5513 30.2952 29.9221 29.9244C30.293 29.5535 30.7946 29.3432 31.319 29.3387C31.8434 29.3341 32.3486 29.5357 32.7258 29.9ZM7.26978 29.9C7.6297 29.5413 8.11265 29.3331 8.62055 29.3175C9.12845 29.302 9.62321 29.4804 10.0043 29.8165C10.3855 30.1526 10.6244 30.6211 10.6726 31.1269C10.7208 31.6328 10.5746 32.138 10.2638 32.54L10.0978 32.728L8.68378 34.142C8.32387 34.5007 7.84092 34.7089 7.33302 34.7245C6.82512 34.74 6.33036 34.5616 5.94923 34.2255C5.5681 33.8894 5.32917 33.4209 5.28099 32.9151C5.2328 32.4092 5.37896 31.904 5.68978 31.502L5.85578 31.314L7.26978 29.9ZM19.9978 8C23.1804 8 26.2326 9.26428 28.4831 11.5147C30.7335 13.7652 31.9978 16.8174 31.9978 20C31.9978 23.1826 30.7335 26.2348 28.4831 28.4853C26.2326 30.7357 23.1804 32 19.9978 32C16.8152 32 13.7629 30.7357 11.5125 28.4853C9.26207 26.2348 7.99778 23.1826 7.99778 20C7.99778 16.8174 9.26207 13.7652 11.5125 11.5147C13.7629 9.26428 16.8152 8 19.9978 8ZM3.99778 18C4.50754 18.0006 4.99785 18.1958 5.36852 18.5457C5.73919 18.8956 5.96225 19.3739 5.99213 19.8828C6.022 20.3917 5.85643 20.8928 5.52925 21.2837C5.20207 21.6746 4.73798 21.9258 4.23178 21.986L3.99778 22H1.99778C1.48803 21.9994 0.99772 21.8042 0.627048 21.4543C0.256376 21.1044 0.0333143 20.6261 0.00344007 20.1172C-0.0264342 19.6083 0.139133 19.1072 0.466314 18.7163C0.793495 18.3254 1.25759 18.0742 1.76378 18.014L1.99778 18H3.99778ZM37.9978 18C38.5282 18 39.0369 18.2107 39.412 18.5858C39.7871 18.9609 39.9978 19.4696 39.9978 20C39.9978 20.5304 39.7871 21.0391 39.412 21.4142C39.0369 21.7893 38.5282 22 37.9978 22H35.9978C35.4674 22 34.9586 21.7893 34.5836 21.4142C34.2085 21.0391 33.9978 20.5304 33.9978 20C33.9978 19.4696 34.2085 18.9609 34.5836 18.5858C34.9586 18.2107 35.4674 18 35.9978 18H37.9978ZM5.85578 5.858C6.20017 5.51365 6.65837 5.30678 7.14442 5.27622C7.63047 5.24566 8.11098 5.3935 8.49578 5.692L8.68378 5.858L10.0978 7.272C10.4565 7.63192 10.6647 8.11487 10.6802 8.62277C10.6957 9.13067 10.5174 9.62543 10.1813 10.0066C9.84522 10.3877 9.37668 10.6266 8.87084 10.6748C8.36499 10.723 7.85977 10.5768 7.45778 10.266L7.26978 10.1L5.85578 8.686C5.48084 8.31094 5.27021 7.80233 5.27021 7.272C5.27021 6.74167 5.48084 6.23306 5.85578 5.858ZM34.1398 5.858C34.5147 6.23306 34.7254 6.74167 34.7254 7.272C34.7254 7.80233 34.5147 8.31094 34.1398 8.686L32.7258 10.1C32.5413 10.291 32.3206 10.4434 32.0766 10.5482C31.8326 10.653 31.5701 10.7082 31.3046 10.7105C31.039 10.7128 30.7757 10.6622 30.5299 10.5616C30.2841 10.4611 30.0608 10.3126 29.873 10.1248C29.6852 9.937 29.5367 9.7137 29.4361 9.46791C29.3356 9.22212 29.285 8.95876 29.2873 8.6932C29.2896 8.42764 29.3448 8.1652 29.4496 7.92119C29.5544 7.67718 29.7068 7.45649 29.8978 7.272L31.3118 5.858C31.6868 5.48306 32.1955 5.27243 32.7258 5.27243C33.2561 5.27243 33.7647 5.48306 34.1398 5.858ZM19.9978 0C20.5282 0 21.0369 0.210714 21.412 0.585786C21.7871 0.960859 21.9978 1.46957 21.9978 2V4C21.9978 4.53043 21.7871 5.03914 21.412 5.41421C21.0369 5.78929 20.5282 6 19.9978 6C19.4674 6 18.9586 5.78929 18.5836 5.41421C18.2085 5.03914 17.9978 4.53043 17.9978 4V2C17.9978 1.46957 18.2085 0.960859 18.5836 0.585786C18.9586 0.210714 19.4674 0 19.9978 0Z" fill="#E6E6E6"/>
</svg>
